<svg width="48" height="48" viewBox="0 0 48 48" fill="none" xmlns="http://www.w3.org/2000/svg">
<path d="M46.946 24.1508C46.9427 25.5701 46.8133 26.9599 46.5685 28.3095C46.5485 28.4199 46.1373 28.5291 46.1157 28.639C46.0327 29.0621 45.9382 29.4813 45.8328 29.8961C45.8048 30.0059 46.1666 30.1163 46.1371 30.2255C45.7553 31.6402 45.2446 33.002 44.6184 34.2974C44.5508 34.4372 44.0444 34.5189 43.9741 34.6571C43.7679 35.0629 43.5501 35.462 43.3213 35.8539C43.2622 35.9552 43.6398 36.1133 43.5792 36.2136C40.238 41.7447 34.6788 45.7857 28.1338 47.1041C27.48 46.4626 26.6005 46.1031 25.6844 46.1031H15.2956C6.36369 42.7833 0 34.1818 0 24.0939C0 19.1803 1.50975 14.6193 4.09063 10.8495C4.11861 10.8086 4.32632 10.8756 4.35459 10.8349C4.66098 10.3934 4.98213 9.96284 5.31737 9.54406C5.34984 9.50353 5.20278 9.35532 5.23555 9.31498C9.53916 4.01084 16.1102 0.62085 23.473 0.62085C36.4271 0.62085 46.9768 11.1968 46.946 24.1508Z" fill="#453D83"/>
<path d="M25.9641 34.2976H44.6184C44.3011 34.9539 43.9542 35.5932 43.5794 36.2138H25.9641C25.435 36.2138 25.006 35.7849 25.006 35.2557C25.006 34.7266 25.435 34.2976 25.9641 34.2976ZM32.8623 28.3096C32.3332 28.3096 31.9042 28.7385 31.9042 29.2677C31.9042 29.7968 32.3332 30.2258 32.8623 30.2258H46.1371C46.3068 29.5971 46.451 28.958 46.5686 28.3096H32.8623ZM34.8406 12.9803C34.8406 18.2716 30.551 22.5611 25.2597 22.5611C19.9684 22.5611 15.6789 18.2716 15.6789 12.9803C15.6789 7.68895 19.9684 3.39941 25.2597 3.39941C30.551 3.39941 34.8406 7.68895 34.8406 12.9803ZM8.52699 18.7288C9.05614 18.7288 9.48508 18.2998 9.48508 17.7707C9.48508 17.2415 9.05614 16.8126 8.52699 16.8126C7.99784 16.8126 7.56891 17.2415 7.56891 17.7707C7.56891 18.2998 7.99784 18.7288 8.52699 18.7288ZM8.52699 11.0641C9.05614 11.0641 9.48508 10.6352 9.48508 10.106C9.48508 9.57685 9.05614 9.14792 8.52699 9.14792C7.99784 9.14792 7.56891 9.57685 7.56891 10.106C7.56891 10.6352 7.99784 11.0641 8.52699 11.0641ZM12.3593 18.7288C12.8885 18.7288 13.3174 18.2998 13.3174 17.7707C13.3174 17.2415 12.8885 16.8126 12.3593 16.8126C11.8302 16.8126 11.4012 17.2415 11.4012 17.7707C11.4012 18.2998 11.8302 18.7288 12.3593 18.7288ZM8.52699 14.8964C9.05614 14.8964 9.48508 14.4675 9.48508 13.9383C9.48508 13.4092 9.05614 12.9803 8.52699 12.9803C7.99784 12.9803 7.56891 13.4092 7.56891 13.9383C7.56891 14.4675 7.99784 14.8964 8.52699 14.8964ZM4.69466 11.0641C5.22381 11.0641 5.65274 10.6352 5.65274 10.106C5.65274 9.77757 5.48747 9.48784 5.23559 9.3152C4.83377 9.81043 4.45178 10.3223 4.09068 10.8497C4.25547 10.9837 4.46567 11.0641 4.69466 11.0641ZM4.69466 14.8964C5.22381 14.8964 5.65274 14.4675 5.65274 13.9383C5.65274 13.4092 5.22381 12.9803 4.69466 12.9803C4.16551 12.9803 3.73657 13.4092 3.73657 13.9383C3.73657 14.4675 4.16551 14.8964 4.69466 14.8964ZM4.69466 18.7288C5.22381 18.7288 5.65274 18.2998 5.65274 17.7707C5.65274 17.2415 5.22381 16.8126 4.69466 16.8126C4.16551 16.8126 3.73657 17.2415 3.73657 17.7707C3.73657 18.2998 4.16551 18.7288 4.69466 18.7288ZM12.3593 14.8964C12.8885 14.8964 13.3174 14.4675 13.3174 13.9383C13.3174 13.4092 12.8885 12.9803 12.3593 12.9803C11.8302 12.9803 11.4012 13.4092 11.4012 13.9383C11.4012 14.4675 11.8302 14.8964 12.3593 14.8964ZM12.3593 9.14792C11.8302 9.14792 11.4012 9.57685 11.4012 10.106C11.4012 10.6352 11.8302 11.0641 12.3593 11.0641C12.8885 11.0641 13.3174 10.6352 13.3174 10.106C13.3174 9.57685 12.8885 9.14792 12.3593 9.14792Z" fill="#5F55AF"/>
<path d="M30.0501 12.9801C30.0501 15.6258 27.9053 17.7705 25.2597 17.7705C22.614 17.7705 20.4692 15.6258 20.4692 12.9801C20.4692 10.3345 22.614 8.1897 25.2597 8.1897C27.9053 8.1897 30.0501 10.3345 30.0501 12.9801ZM41.1018 27.1119C40.5726 27.1119 40.1437 27.5408 40.1437 28.0699V30.4651C40.1437 30.9943 40.5726 31.4232 41.1018 31.4232C41.6309 31.4232 42.0598 30.9943 42.0598 30.4651V28.0699C42.0598 27.5408 41.6309 27.1119 41.1018 27.1119ZM35.3533 33.0999C34.8241 33.0999 34.3952 33.5288 34.3952 34.058V36.4532C34.3952 36.9823 34.8241 37.4113 35.3533 37.4113C35.8824 37.4113 36.3113 36.9823 36.3113 36.4532V34.058C36.3113 33.5288 35.8824 33.0999 35.3533 33.0999Z" fill="#76B6FA"/>
<path d="M36.6376 23.2622L34.0539 27.9484C33.5707 28.8249 33.1887 29.7536 32.9152 30.7165C32.2975 32.8923 31.1304 34.8732 29.5273 36.4687C29.2783 36.7165 29.1107 36.8851 29.0988 36.9011C28.4654 38.391 28.1341 40.0006 28.1341 41.6357V47.1041C26.6277 47.4076 25.069 47.5669 23.4732 47.5669C20.5973 47.5669 17.8422 47.0496 15.2958 46.1032V42.2002C15.2958 40.0069 14.6997 37.8549 13.5712 35.974C12.4428 34.0933 11.8467 31.9412 11.8467 29.7478V23.519L23.3437 22.561V12.9801C23.3437 11.8986 24.2396 11.0265 25.3297 11.0652C26.3681 11.1021 27.176 11.9871 27.176 13.026V28.5697C27.176 28.8912 27.3294 29.1935 27.589 29.3833C28.0794 29.7421 28.7735 29.5885 29.0669 29.0564L32.3564 23.0899C33.1232 21.6991 34.873 21.1937 36.2634 21.9619C36.7254 22.2172 36.8924 22.7999 36.6376 23.2622Z" fill="#FFBEAA"/>
<path d="M15.7443 34.9894C17.0447 37.3028 17.692 39.9262 17.6169 42.579L17.4973 46.7994C16.7481 46.6029 16.0135 46.37 15.2955 46.1032V42.2003C15.2955 40.0069 14.6994 37.8549 13.571 35.9741C12.4426 34.0933 11.8464 31.9412 11.8464 29.7479V23.519L13.9867 23.3406L13.8717 27.3999C13.7966 30.0527 14.4439 32.676 15.7443 34.9894ZM26.4909 30.2256C22.3968 30.2256 19.0658 33.5565 19.0658 37.6507C19.0658 38.0475 19.3875 38.3693 19.7844 38.3693C20.1812 38.3693 20.5029 38.0475 20.5029 37.6507C20.5029 34.349 23.1892 31.6627 26.4909 31.6627C26.8878 31.6627 27.2095 31.341 27.2095 30.9441C27.2095 30.5473 26.8878 30.2256 26.4909 30.2256Z" fill="#FAA68E"/>
<path d="M23.3434 22.5609V30.2256C23.3434 31.2839 22.4856 32.1418 21.4273 32.1418C20.369 32.1418 19.5111 31.2839 19.5111 30.2256V28.3094C19.5111 29.3677 18.6532 30.2256 17.5949 30.2256C16.5366 30.2256 15.6788 29.3677 15.6788 28.3094V26.3933C15.6788 27.4516 14.8209 28.3094 13.7626 28.3094C12.7043 28.3094 11.8464 27.4516 11.8464 26.3933V22.5609C11.8464 21.5026 12.7043 20.6448 13.7626 20.6448C14.8209 20.6448 15.6788 21.5026 15.6788 22.5609C15.6788 21.5026 16.5366 20.6448 17.5949 20.6448C18.6532 20.6448 19.5111 21.5026 19.5111 22.5609C19.5111 21.5026 20.369 20.6448 21.4273 20.6448C22.4856 20.6448 23.3434 21.5026 23.3434 22.5609Z" fill="#FFCDBE"/>
<path d="M21.4273 32.1418C20.369 32.1418 19.5111 31.2839 19.5111 30.2256V22.5609C19.5111 21.5026 20.369 20.6448 21.4273 20.6448C21.7763 20.6448 22.1035 20.7381 22.3854 20.9012C21.8126 21.2325 21.4273 21.8517 21.4273 22.5609V32.1418ZM17.5949 22.5609C17.5949 21.8517 17.9803 21.2325 18.553 20.9012C18.2712 20.7381 17.944 20.6448 17.5949 20.6448C16.5366 20.6448 15.6788 21.5026 15.6788 22.5609V28.3094C15.6788 29.3677 16.5366 30.2256 17.5949 30.2256V22.5609ZM13.7626 27.6867V22.5609C13.7626 21.8517 14.1479 21.2325 14.7207 20.9012C14.4388 20.7381 14.1116 20.6448 13.7626 20.6448C12.7043 20.6448 11.8464 21.5026 11.8464 22.5609V26.3933C11.8464 27.4516 12.7043 28.3094 13.7626 28.3094C13.797 28.3094 13.8312 28.3085 13.8652 28.3068C13.7987 28.1123 13.7626 27.9037 13.7626 27.6867Z" fill="#FFBEAA"/>
<path d="M14.7209 26.3934V27.3515C14.7209 27.8806 14.2919 28.3096 13.7628 28.3096C13.2336 28.3096 12.8047 27.8806 12.8047 27.3515V26.3934C12.8047 25.8642 13.2336 25.4353 13.7628 25.4353C14.2919 25.4353 14.7209 25.8642 14.7209 26.3934ZM17.5951 27.3515C17.066 27.3515 16.637 27.7804 16.637 28.3096V29.2676C16.637 29.7968 17.066 30.2257 17.5951 30.2257C18.1243 30.2257 18.5532 29.7968 18.5532 29.2676V28.3096C18.5532 27.7804 18.1243 27.3515 17.5951 27.3515ZM21.4274 29.2676C20.8983 29.2676 20.4694 29.6966 20.4694 30.2257V31.1838C20.4694 31.713 20.8983 32.1419 21.4274 32.1419C21.9566 32.1419 22.3855 31.713 22.3855 31.1838V30.2257C22.3855 29.6966 21.9566 29.2676 21.4274 29.2676Z" fill="#FFEEE5"/>
<path d="M27.1758 12.9801C27.1758 14.0384 26.318 14.8963 25.2597 14.8963C24.2014 14.8963 23.3435 14.0384 23.3435 12.9801C23.3435 11.9218 24.2014 11.064 25.2597 11.064C26.318 11.064 27.1758 11.9218 27.1758 12.9801Z" fill="#E9F3FE"/>
<path d="M48.0001 11.064C48.0001 11.5932 47.5712 12.0221 47.042 12.0221H32.8624C32.3332 12.0221 31.9043 11.5932 31.9043 11.064C31.9043 10.5349 32.3332 10.106 32.8624 10.106H47.042C47.5712 10.106 48.0001 10.5349 48.0001 11.064ZM39.569 13.9383H32.8624C32.3332 13.9383 31.9043 14.3672 31.9043 14.8964C31.9043 15.4255 32.3332 15.8545 32.8624 15.8545H39.569C40.0981 15.8545 40.5271 15.4255 40.5271 14.8964C40.5271 14.3672 40.0981 13.9383 39.569 13.9383Z" fill="#A7D0FC"/>
</svg>
