<svg width="20" height="20" viewBox="0 0 20 20" fill="none" xmlns="http://www.w3.org/2000/svg">
<rect width="20" height="20" fill="#333333"/>
<g id="Personal_Details" clip-path="url(#clip0_0_1)">
<rect width="1440" height="750" transform="translate(-917 -395)" fill="#F4F8FB"/>
<rect id="Rectangle 9182" width="585" height="546" rx="24" transform="matrix(-1 0 0 1 96 -313)" fill="white"/>
<g id="Group 2610337">
<g id="Textfield">
<g id="calendar">
<path id="Vector" d="M15.8333 3.33398H4.16667C3.24619 3.33398 2.5 4.08018 2.5 5.00065V16.6673C2.5 17.5878 3.24619 18.334 4.16667 18.334H15.8333C16.7538 18.334 17.5 17.5878 17.5 16.6673V5.00065C17.5 4.08018 16.7538 3.33398 15.8333 3.33398Z" stroke="#C2CACF" stroke-width="1.5" stroke-linecap="round" stroke-linejoin="round"/>
<path id="Vector_2" d="M13.3359 1.66797V5.0013" stroke="#C2CACF" stroke-width="1.5" stroke-linecap="round" stroke-linejoin="round"/>
<path id="Vector_3" d="M6.66406 1.66797V5.0013" stroke="#C2CACF" stroke-width="1.5" stroke-linecap="round" stroke-linejoin="round"/>
<path id="Vector_4" d="M2.5 8.33398H17.5" stroke="#C2CACF" stroke-width="1.5" stroke-linecap="round" stroke-linejoin="round"/>
</g>
<rect x="-428.5" y="-13.5" width="464" height="47" rx="7.5" stroke="#C2CACF"/>
</g>
</g>
</g>
<defs>
<clipPath id="clip0_0_1">
<rect width="1440" height="750" fill="white" transform="translate(-917 -395)"/>
</clipPath>
</defs>
</svg>
