<svg width="49" height="48" viewBox="0 0 49 48" fill="none" xmlns="http://www.w3.org/2000/svg">
<g id="fi_2535844" clip-path="url(#clip0_1006_4117)">
<g id="Group">
<path id="Vector" d="M48.5 24C48.5 37.2544 37.7544 48 24.5 48C20.7228 48 17.15 47.1272 13.9709 45.5719C12.4044 44.806 5.03937 38.0616 4.70844 37.5788C2.05344 33.7172 0.5 29.04 0.5 24C0.5 20.7994 1.12625 17.746 2.26344 14.9541C5.83531 6.18286 33.5009 1.7138 34.5809 2.21442C42.8 6.02348 48.5 14.3466 48.5 24Z" fill="#5E54AC"/>
<path id="Vector_2" d="M34.5812 2.21438L12.0521 24.7425L2.26367 14.9541C5.83555 6.18281 14.4465 0 24.5002 0C25.2052 0 25.9037 0.03 26.5937 0.09C28.1846 0.227812 29.7305 0.520313 31.2174 0.953438C32.3771 1.29094 33.5012 1.71375 34.5812 2.21438Z" fill="#EFEBEE"/>
<path id="Vector_3" d="M31.2174 0.953525L9.74019 22.4307L6.99707 19.6866L26.5936 0.0900879C28.1846 0.2279 29.7305 0.5204 31.2174 0.953525Z" fill="#DAE4EA"/>
<path id="Vector_4" d="M28.0111 39.9188L15.0727 44.4695L13.9711 45.572C10.7658 44.0054 7.96172 41.7451 5.75391 38.987L15.9089 28.832L28.9195 21.5532L31.447 33.8448C31.9823 36.4435 30.5152 39.0385 28.0111 39.9188Z" fill="#F9C5AC"/>
<path id="Vector_5" d="M18.713 33.0102L18.415 32.7122L26.0243 25.103L28.5309 27.6096L23.1303 33.0102C21.9105 34.23 19.9328 34.23 18.713 33.0102Z" fill="#EFB29A"/>
<g id="Group_2">
<g id="Group_3">
<path id="Vector_6" d="M46.6563 11.8157C47.1355 12.4514 47.1044 13.3351 46.5794 13.9344C41.0858 20.2194 35.1959 26.1094 28.9108 31.603C28.3116 32.128 27.4272 32.1598 26.7922 31.6798C24.1962 29.719 21.7918 27.5665 19.5803 25.2224C18.5528 24.1339 17.5671 23.0036 16.6218 21.8317C16.232 21.3491 15.8488 20.8585 15.4736 20.3613C14.9931 19.7256 15.0255 18.8419 15.5498 18.242C21.044 11.9576 26.934 6.06752 33.2183 0.573299C33.8182 0.0489555 34.7013 0.0170805 35.3377 0.497081C35.8348 0.872268 36.3254 1.25542 36.808 1.64524C37.9807 2.58986 39.1103 3.5763 40.1988 4.6038C42.5429 6.81536 44.6954 9.21967 46.6563 11.8157Z" fill="#DD636E"/>
<g id="Group_4">
<path id="Vector_7" d="M40.1993 4.60383L19.5806 25.2225C18.5531 24.1339 17.5674 23.0037 16.6221 21.8317L36.8084 1.64526C37.9811 2.58998 39.1107 3.57633 40.1993 4.60383Z" fill="#2F373B"/>
<path id="Vector_8" d="M25.2288 23.63L23.3183 25.5406C22.9774 25.8815 22.4247 25.8815 22.0838 25.5406C21.7429 25.1997 21.7429 24.647 22.0838 24.3061L23.9943 22.3955C24.3352 22.0547 24.8879 22.0547 25.2288 22.3955C25.5697 22.7364 25.5697 23.2892 25.2288 23.63Z" fill="#2F373B"/>
<path id="Vector_9" d="M28.9075 19.9513L26.997 21.8619C26.6561 22.2027 26.1034 22.2027 25.7625 21.8619C25.4216 21.521 25.4216 20.9682 25.7625 20.6274L27.673 18.7168C28.0139 18.376 28.5666 18.376 28.9075 18.7168C29.2484 19.0578 29.2484 19.6105 28.9075 19.9513Z" fill="#2F373B"/>
<path id="Vector_10" d="M32.5862 16.2726L30.6757 18.1832C30.3348 18.524 29.7821 18.524 29.4412 18.1832C29.1003 17.8423 29.1003 17.2895 29.4412 16.9487L31.3517 15.0381C31.6926 14.6973 32.2454 14.6973 32.5862 15.0381C32.9271 15.379 32.9271 15.9318 32.5862 16.2726Z" fill="#2F373B"/>
<path id="Vector_11" d="M36.2649 12.5937L34.3544 14.5042C34.0135 14.8451 33.4608 14.8451 33.1199 14.5042C32.779 14.1633 32.779 13.6106 33.1199 13.2697L35.0304 11.3592C35.3713 11.0183 35.9241 11.0183 36.2649 11.3592C36.6059 11.7 36.6059 12.2527 36.2649 12.5937Z" fill="#2F373B"/>
<path id="Vector_12" d="M31.7564 26.3996L28.288 29.868C27.9471 30.2088 27.3944 30.2088 27.0535 29.868C26.7126 29.5271 26.7126 28.9743 27.0535 28.6335L30.5219 25.1651C30.8628 24.8242 31.4155 24.8242 31.7564 25.1651C32.0974 25.506 32.0974 26.0587 31.7564 26.3996Z" fill="#2F373B"/>
</g>
<path id="Vector_13" d="M40.7034 10.7127L37.1441 14.272C36.6173 14.7988 36.6173 15.653 37.1441 16.1797L38.2786 17.3142C38.8054 17.841 39.6595 17.841 40.1863 17.3142L43.7456 13.7549C44.2724 13.2281 44.2724 12.374 43.7456 11.8472L42.6111 10.7127C42.0843 10.1859 41.2302 10.1859 40.7034 10.7127Z" fill="#F4DD45"/>
</g>
<path id="Vector_14" d="M30.7358 21.6442L9.58113 42.8007C8.16645 41.6767 6.88207 40.397 5.75332 38.987C5.38863 38.5313 5.03895 38.0617 4.70801 37.5788L7.52051 34.7682L7.47457 32.2557C7.38363 27.362 11.0783 23.2248 15.9505 22.7635L18.6533 22.5076L25.1258 16.0351C25.9002 15.2607 26.9155 14.8735 27.9308 14.8735C28.9452 14.8735 29.9614 15.2607 30.7358 16.0351C32.2846 17.5829 32.2846 20.0963 30.7358 21.6442Z" fill="#F9C5AC"/>
<path id="Vector_15" d="M31.4858 17.0748C30.9318 16.8001 30.3261 16.6632 29.7214 16.6632C28.7061 16.6632 27.6908 17.0504 26.9164 17.8248L20.4439 24.2982L20.2443 24.316C13.9593 24.9113 9.19488 30.2476 9.3102 36.557L6.26426 39.6029C6.08988 39.4004 5.9202 39.1951 5.75332 38.987C5.38863 38.5313 5.03895 38.0617 4.70801 37.5788L7.52051 34.7682L7.47457 32.2557C7.38363 27.362 11.0783 23.2248 15.9505 22.7635L18.6533 22.5076L25.1258 16.0351C25.9002 15.2607 26.9155 14.8735 27.9308 14.8735C28.9452 14.8735 29.9605 15.2588 30.7358 16.0351C31.0489 16.3482 31.2993 16.6998 31.4858 17.0748Z" fill="#EFB29A"/>
</g>
<g id="Group_5">
<path id="Vector_16" d="M11.9519 17.7594C12.032 17.8654 12.0842 17.9945 12.0963 18.1365C12.1306 18.5377 11.8333 18.8909 11.432 18.9252L7.23566 19.2841C6.8345 19.3185 6.48134 19.0209 6.44703 18.6198C6.41272 18.2185 6.71009 17.8654 7.11134 17.8311L11.3077 17.4722C11.5668 17.45 11.8059 17.5662 11.9519 17.7594Z" fill="#E7A52E"/>
<path id="Vector_17" d="M13.2239 15.4085C13.4045 15.6474 13.4256 15.9834 13.252 16.2481C13.0312 16.5849 12.5792 16.679 12.2425 16.4582L8.1381 13.7681C7.80135 13.5471 7.70722 13.0953 7.928 12.7585C8.14879 12.4217 8.60075 12.3276 8.9375 12.5484L13.0419 15.2385C13.1139 15.2858 13.1748 15.3435 13.2239 15.4085Z" fill="#E7A52E"/>
<path id="Vector_18" d="M13.0861 9.4959C13.1159 9.53528 13.142 9.57831 13.164 9.62481L14.9817 13.4717C15.1537 13.8358 14.9981 14.2704 14.634 14.4424C14.2698 14.6144 13.8352 14.4586 13.6632 14.0947L11.8455 10.2479C11.6734 9.88375 11.8291 9.44912 12.1932 9.27709C12.511 9.127 12.8822 9.22637 13.0861 9.4959Z" fill="#E7A52E"/>
</g>
</g>
</g>
<defs>
<clipPath id="clip0_1006_4117">
<rect width="48" height="48" fill="white" transform="translate(0.5)"/>
</clipPath>
</defs>
</svg>
