<svg width="49" height="49" viewBox="0 0 49 49" fill="none" xmlns="http://www.w3.org/2000/svg">
<path d="M24.5293 48.5293C37.7841 48.5293 48.5293 37.7841 48.5293 24.5293C48.5293 11.2745 37.7841 0.529297 24.5293 0.529297C11.2745 0.529297 0.529297 11.2745 0.529297 24.5293C0.529297 37.7841 11.2745 48.5293 24.5293 48.5293Z" fill="#8FC8F5"/>
<path d="M44.9928 11.8093C40.7251 18.5818 33.1551 23.0818 24.5295 23.0818C15.9038 23.0818 8.33377 18.5818 4.06616 11.8093C8.32622 5.0368 15.9038 0.529297 24.5295 0.529297C33.1551 0.529297 40.7327 5.0368 44.9928 11.8093Z" fill="#D0F6FF"/>
<path opacity="0.15" d="M39.5309 41.5974C39.5309 42.1293 32.8132 42.5608 24.5292 42.5608C16.2453 42.5608 9.52759 42.1293 9.52759 41.5974C9.52759 41.0654 16.2453 40.6399 24.5292 40.6399C32.8132 40.6399 39.5309 41.0654 39.5309 41.5974Z" fill="black"/>
<path d="M12.0312 12.0311C7.78497 16.2772 7.78481 23.1696 12.0309 27.4158C16.277 31.6619 23.1694 31.6619 27.4157 27.4158C31.662 23.1696 31.6621 16.2772 27.416 12.0311C23.1698 7.78489 16.2775 7.78488 12.0312 12.0311Z" fill="#20273A"/>
<path d="M25.5476 27.4407L27.4351 25.5532L30.5735 28.6917L28.6861 30.5792L25.5476 27.4407Z" fill="#20273A"/>
<path d="M31.6181 27.0169L39.9778 35.3767C40.2902 35.6891 40.2903 36.2003 39.9778 36.5128L36.5126 39.9779C36.2002 40.2903 35.6889 40.2903 35.3765 39.9779L27.0168 31.618C26.6997 31.3009 26.7044 30.7944 27.0169 30.482L30.4821 27.0169C30.7945 26.7044 31.301 26.6997 31.6181 27.0169Z" fill="#FF3445"/>
<path d="M27.5767 32.1821L32.1771 27.5817L32.9656 28.3702L28.3651 32.9706L27.5767 32.1821Z" fill="white"/>
<path d="M33.9641 38.5715L38.5646 33.9711L39.353 34.7596L34.7526 39.36L33.9641 38.5715Z" fill="white"/>
<path d="M27.4507 10.0774C27.3189 9.94561 27.3189 9.73231 27.4507 9.60052L29.1599 7.89133C29.2917 7.75953 29.505 7.75953 29.6368 7.89133C29.7686 8.02313 29.7686 8.23643 29.6368 8.36822L27.9276 10.0774C27.7958 10.2092 27.5825 10.2092 27.4507 10.0774Z" fill="white"/>
<path d="M25.8368 8.46342C25.7758 8.40241 25.738 8.31812 25.738 8.22498L25.7383 5.80813C25.7383 5.62184 25.8892 5.47095 26.0755 5.47095C26.2618 5.47095 26.4127 5.62184 26.4127 5.80813L26.4124 8.22498C26.4124 8.41126 26.2615 8.56216 26.0752 8.56216C25.9821 8.56216 25.8978 8.52443 25.8368 8.46342Z" fill="white"/>
<path d="M29.0643 11.6911C29.0033 11.6301 28.9656 11.5458 28.9656 11.4527C28.9656 11.2664 29.1165 11.1155 29.3028 11.1155L31.7199 11.1155C31.9061 11.1155 32.057 11.2664 32.057 11.4527C32.057 11.6389 31.9061 11.7898 31.7199 11.7898H29.3028C29.2096 11.7898 29.1253 11.7521 29.0643 11.6911Z" fill="white"/>
</svg>
