<svg width="40" height="40" viewBox="0 0 40 40" fill="none" xmlns="http://www.w3.org/2000/svg">
<g id="fi_8392542" clip-path="url(#clip0_1218_2066)">
<g id="Group">
<path id="Vector" d="M26.8412 30.7812V36.1805H13.1592V30.7812H17.5857C17.5857 32.2977 18.6666 33.5266 20.0002 33.5266C21.3338 33.5266 22.4146 32.2977 22.4146 30.7812H26.8412Z" fill="#C5D3DD"/>
<g id="Group_2">
<path id="Vector_2" d="M24.4268 30.7812H26.8412V36.1805H24.4268V30.7812Z" fill="#8EBAC5"/>
</g>
<path id="Vector_3" d="M38.8732 31.1067H1.1268C0.504453 31.1067 0 30.6022 0 29.9799V4.22543C0 3.60316 0.504453 3.09863 1.1268 3.09863H38.8733C39.4955 3.09863 40.0001 3.60309 40.0001 4.22543V29.98C40 30.6022 39.4955 31.1067 38.8732 31.1067Z" fill="#6C7FD8"/>
<path id="Vector_4" d="M38.8734 3.09863H36.459C37.0813 3.09863 37.5858 3.60309 37.5858 4.22543V29.98C37.5858 30.6022 37.0813 31.1068 36.459 31.1068H38.8734C39.4957 31.1068 40.0002 30.6023 40.0002 29.98V4.22543C40.0002 3.60309 39.4958 3.09863 38.8734 3.09863Z" fill="#4F66D0"/>
<path id="Vector_5" d="M2.41406 25.634V5.83514C2.41406 5.65732 2.5582 5.51318 2.73602 5.51318H37.2632C37.441 5.51318 37.5852 5.65732 37.5852 5.83514V25.634C37.5852 25.8118 37.441 25.9559 37.2632 25.9559H2.73602C2.5582 25.9558 2.41406 25.8117 2.41406 25.634Z" fill="#554E56"/>
<path id="Vector_6" d="M37.2641 5.51318H34.8496C35.0274 5.51318 35.1716 5.65732 35.1716 5.83514V25.634C35.1716 25.8118 35.0274 25.9559 34.8496 25.9559H37.2641C37.4419 25.9559 37.586 25.8118 37.586 25.634V5.83514C37.586 5.65732 37.4419 5.51318 37.2641 5.51318Z" fill="#433F43"/>
<path id="Vector_7" d="M29.6795 38.2698H10.3202C10.1099 38.2698 9.93945 38.0993 9.93945 37.889V37.6258C9.93945 36.648 10.7322 35.8552 11.7101 35.8552H28.2895C29.2674 35.8552 30.0602 36.648 30.0602 37.6258V37.889C30.0602 38.0993 29.8898 38.2698 29.6795 38.2698Z" fill="#6C7FD8"/>
<path id="Vector_8" d="M28.2895 35.8552H25.875C26.8529 35.8552 27.6456 36.648 27.6456 37.6258V37.889C27.6456 38.0992 27.4752 38.2697 27.2648 38.2697H29.6793C29.8895 38.2697 30.0601 38.0992 30.0601 37.889V37.6258C30.0601 36.648 29.2673 35.8552 28.2895 35.8552Z" fill="#4F66D0"/>
<path id="Vector_9" d="M33.3606 21.0463H6.64031C6.4625 21.0463 6.31836 20.9022 6.31836 20.7244V2.05242C6.31836 1.87461 6.4625 1.73047 6.64031 1.73047H33.3606C33.5384 1.73047 33.6826 1.87461 33.6826 2.05242V20.7245C33.6826 20.9022 33.5384 21.0463 33.3606 21.0463Z" fill="#F9F3F1"/>
<path id="Vector_10" d="M33.3598 1.73047H30.9453C31.1231 1.73047 31.2673 1.87461 31.2673 2.05242V20.7245C31.2673 20.9023 31.1231 21.0464 30.9453 21.0464H33.3598C33.5376 21.0464 33.6817 20.9023 33.6817 20.7245V2.05242C33.6817 1.87461 33.5376 1.73047 33.3598 1.73047Z" fill="#EFE2DD"/>
<path id="Vector_11" d="M16.8376 13.5658H10.5135C10.0374 13.5658 9.65137 13.1799 9.65137 12.7037V11.08C9.65137 10.0526 10.4843 9.21973 11.5116 9.21973H15.8394C16.8668 9.21973 17.6996 10.0526 17.6996 11.08V12.7037C17.6996 13.1798 17.3137 13.5658 16.8376 13.5658Z" fill="#6C7FD8"/>
<path id="Vector_12" d="M15.8393 9.21973H13.4248C14.4521 9.21973 15.285 10.0526 15.285 11.08V12.7037C15.285 13.1798 14.8991 13.5658 14.423 13.5658H16.8375C17.3136 13.5658 17.6995 13.1799 17.6995 12.7037V11.08C17.6995 10.0525 16.8667 9.21973 15.8393 9.21973Z" fill="#4F66D0"/>
<path id="Vector_13" d="M17.042 18.1088H10.3089C9.94574 18.1088 9.65137 17.8143 9.65137 17.4512V16.3519C9.65137 15.9887 9.94582 15.6943 10.3089 15.6943H17.042C17.4052 15.6943 17.6996 15.9888 17.6996 16.3519V17.4512C17.6996 17.8143 17.4052 18.1088 17.042 18.1088Z" fill="#FE5694"/>
<path id="Vector_14" d="M17.0424 15.6943H14.6279C14.9911 15.6943 15.2855 15.9888 15.2855 16.3519V17.4512C15.2855 17.8144 14.9911 18.1088 14.6279 18.1088H17.0424C17.4056 18.1088 17.7 17.8143 17.7 17.4512V16.3519C17.7 15.9888 17.4056 15.6943 17.0424 15.6943Z" fill="#E03D9C"/>
<path id="Vector_15" d="M11.2607 7.53395V6.56387C11.2607 5.23035 12.3418 4.14941 13.6752 4.14941C15.0087 4.14941 16.0896 5.23043 16.0896 6.56387V7.52535C16.0896 8.86121 15.0068 9.9441 13.6709 9.9441C12.3398 9.9441 11.2607 8.86504 11.2607 7.53395Z" fill="#FFD15B"/>
<path id="Vector_16" d="M13.6752 4.14917C13.2353 4.14917 12.8232 4.26745 12.468 4.473C13.1895 4.8905 13.6752 5.67011 13.6752 6.5637V7.52519C13.6752 8.42073 13.1882 9.20198 12.4648 9.62019C12.8197 9.82573 13.2313 9.94401 13.6709 9.94401C15.0068 9.94401 16.0897 8.86112 16.0897 7.52526V6.5637C16.0898 5.23019 15.0087 4.14917 13.6752 4.14917Z" fill="#FEB237"/>
<g id="Group_3">
<path id="Vector_17" d="M30.2555 10.1451C29.823 7.70135 27.9315 5.99463 25.6555 5.99463C24.36 5.99463 23.1523 6.45479 22.2547 7.29033C21.2957 8.18307 20.7676 9.45541 20.7676 10.8731C20.7676 13.0617 21.981 15.3087 23.7184 16.3374C23.8121 16.3928 23.9149 16.4192 24.0164 16.4192C24.2166 16.4192 24.4118 16.3165 24.5212 16.1317C24.686 15.8532 24.5939 15.4938 24.3155 15.329C22.9387 14.5138 21.9394 12.6399 21.9394 10.8731C21.9394 8.43971 23.8088 7.1665 25.6555 7.1665C27.3528 7.1665 28.7698 8.47533 29.1013 10.3493C29.1577 10.668 29.4617 10.8804 29.7804 10.8242C30.0992 10.7678 30.3118 10.4638 30.2555 10.1451Z" fill="#6BD9E7"/>
<path id="Vector_18" d="M27.7722 9.64597C27.6232 9.35862 27.2694 9.24651 26.9823 9.3955C26.695 9.54448 26.583 9.89815 26.7319 10.1854C26.9926 10.6882 27.7403 12.01 29.0505 13.4249C29.166 13.5496 29.323 13.6127 29.4806 13.6127C29.6229 13.6127 29.7657 13.561 29.8785 13.4567C30.116 13.2368 30.1303 12.866 29.9103 12.6286C28.6973 11.3187 28.011 10.1064 27.7722 9.64597Z" fill="#6BD9E7"/>
<path id="Vector_19" d="M24.2098 11.4982C23.8481 10.8021 24.1198 9.94181 24.8156 9.58024C25.0371 9.46501 25.2853 9.41001 25.5324 9.4211C25.8525 9.43454 26.1295 9.18517 26.1438 8.86181C26.1583 8.53853 25.9079 8.26478 25.5846 8.25032C25.1314 8.23024 24.6788 8.33048 24.2751 8.5404C23.0061 9.19978 22.5103 10.769 23.17 12.0388C23.5404 12.7506 24.599 14.6094 26.4241 16.492C26.5391 16.6105 26.6919 16.67 26.8449 16.67C26.9918 16.67 27.1389 16.6151 27.2527 16.5048C27.4851 16.2795 27.4908 15.9086 27.2655 15.6763C25.548 13.9047 24.5562 12.164 24.2098 11.4982Z" fill="#6BD9E7"/>
<path id="Vector_20" d="M26.355 11.092C26.1959 10.8103 25.8385 10.711 25.5568 10.8699C25.275 11.029 25.1755 11.3864 25.3346 11.6682C25.3807 11.7499 26.4821 13.6875 27.9813 15.1598C28.0953 15.2718 28.2435 15.3277 28.3918 15.3277C28.5435 15.3277 28.6952 15.2691 28.8099 15.1523C29.0366 14.9214 29.0333 14.5504 28.8024 14.3237C27.424 12.97 26.3656 11.1106 26.355 11.092Z" fill="#6BD9E7"/>
</g>
<g id="Group_4">
<path id="Vector_21" d="M34.658 27.8916H33.6816C33.358 27.8916 33.0957 28.1539 33.0957 28.4775C33.0957 28.8011 33.358 29.0635 33.6816 29.0635H34.658C34.9817 29.0635 35.244 28.8011 35.244 28.4775C35.244 28.1539 34.9816 27.8916 34.658 27.8916Z" fill="#FFD15B"/>
<path id="Vector_22" d="M31.4334 27.8916H30.457C30.1334 27.8916 29.8711 28.1539 29.8711 28.4775C29.8711 28.8011 30.1334 29.0635 30.457 29.0635H31.4334C31.7571 29.0635 32.0194 28.8011 32.0194 28.4775C32.0194 28.1539 31.757 27.8916 31.4334 27.8916Z" fill="#FFD15B"/>
</g>
</g>
</g>
<defs>
<clipPath id="clip0_1218_2066">
<rect width="40" height="40" fill="white"/>
</clipPath>
</defs>
</svg>
