<svg width="40" height="40" viewBox="0 0 40 40" fill="none" xmlns="http://www.w3.org/2000/svg">
<g id="help-circle">
<path id="Vector" d="M19.9987 36.6673C29.2034 36.6673 36.6654 29.2054 36.6654 20.0007C36.6654 10.7959 29.2034 3.33398 19.9987 3.33398C10.794 3.33398 3.33203 10.7959 3.33203 20.0007C3.33203 29.2054 10.794 36.6673 19.9987 36.6673Z" stroke="black" stroke-width="2" stroke-linecap="round" stroke-linejoin="round"/>
<path id="Vector_2" d="M15.1484 15.0009C15.5403 13.8871 16.3137 12.9478 17.3317 12.3495C18.3497 11.7512 19.5466 11.5325 20.7104 11.7321C21.8742 11.9318 22.9298 12.5368 23.6902 13.4402C24.4507 14.3435 24.8669 15.4868 24.8651 16.6676C24.8651 20.0009 19.8651 21.6676 19.8651 21.6676V24.582" stroke="black" stroke-width="2" stroke-linecap="round" stroke-linejoin="round"/>
<path id="Vector_3" d="M20 28.334H20.0167" stroke="black" stroke-width="2" stroke-linecap="round" stroke-linejoin="round"/>
</g>
</svg>
