<svg width="80" height="64" viewBox="0 0 80 64" fill="none" xmlns="http://www.w3.org/2000/svg">
<g id="Group 2611028">
<path id="Star 19" d="M7.51894 7.82031L9.54974 13.0888L15.0379 15.0383L9.54974 16.9878L7.51894 22.2562L5.48814 16.9878L0 15.0383L5.48814 13.0888L7.51894 7.82031Z" fill="#49D49D"/>
<path id="Star 20" d="M71.2499 55.9395L72.2976 58.7706L75.1288 59.8182L72.2976 60.8658L71.2499 63.6969L70.2023 60.8658L67.3711 59.8182L70.2023 58.7706L71.2499 55.9395Z" fill="#49D49D"/>
<path id="Star 21" d="M76.6911 4.8125L77.5847 7.22721L79.9995 8.12073L77.5847 9.01426L76.6911 11.429L75.7976 9.01426L73.3828 8.12073L75.7976 7.22721L76.6911 4.8125Z" fill="#49D49D"/>
<path id="Ellipse 669" d="M76.5505 31.8793C76.5505 49.2403 62.4762 63.3142 45.1147 63.3142C27.7531 63.3142 13.6788 49.2403 13.6788 31.8793C13.6788 14.5183 27.7531 0.444446 45.1147 0.444446C62.4762 0.444446 76.5505 14.5183 76.5505 31.8793Z" stroke="#49D49D" stroke-width="0.888892"/>
<ellipse id="Ellipse 817" cx="45.1154" cy="31.8803" rx="22.8576" ry="22.8569" fill="#49D49D"/>
<path id="Vector" d="M52.2024 25.6465L43.364 34.4859L38.7676 29.8894L38.414 29.5359L38.0604 29.8894L36.6464 31.3034L36.2929 31.657L36.6464 32.0106L43.0104 38.3746L43.364 38.7281L43.7176 38.3746L54.3246 27.7676L54.6782 27.4139L54.3244 27.0603L52.9094 25.6463L52.5559 25.293L52.2024 25.6465Z" fill="white" stroke="white"/>
</g>
</svg>
