<svg width="40" height="40" viewBox="0 0 40 40" fill="none" xmlns="http://www.w3.org/2000/svg">
<g id="life-buoy">
<path id="Vector" d="M19.9987 36.6673C29.2034 36.6673 36.6654 29.2054 36.6654 20.0007C36.6654 10.7959 29.2034 3.33398 19.9987 3.33398C10.794 3.33398 3.33203 10.7959 3.33203 20.0007C3.33203 29.2054 10.794 36.6673 19.9987 36.6673Z" stroke="black" stroke-width="2" stroke-linecap="round" stroke-linejoin="round"/>
<path id="Vector_2" d="M19.9987 26.6673C23.6806 26.6673 26.6654 23.6825 26.6654 20.0007C26.6654 16.3188 23.6806 13.334 19.9987 13.334C16.3168 13.334 13.332 16.3188 13.332 20.0007C13.332 23.6825 16.3168 26.6673 19.9987 26.6673Z" stroke="black" stroke-width="2" stroke-linecap="round" stroke-linejoin="round"/>
<path id="Vector_3" d="M8.21484 8.2168L15.2815 15.2835" stroke="black" stroke-width="2" stroke-linecap="round" stroke-linejoin="round"/>
<path id="Vector_4" d="M24.7148 24.7168L31.7815 31.7835" stroke="black" stroke-width="2" stroke-linecap="round" stroke-linejoin="round"/>
<path id="Vector_5" d="M24.7148 15.2835L31.7815 8.2168" stroke="black" stroke-width="2" stroke-linecap="round" stroke-linejoin="round"/>
<path id="Vector_6" d="M24.7148 15.2837L30.5982 9.40039" stroke="black" stroke-width="2" stroke-linecap="round" stroke-linejoin="round"/>
<path id="Vector_7" d="M8.21484 31.7835L15.2815 24.7168" stroke="black" stroke-width="2" stroke-linecap="round" stroke-linejoin="round"/>
</g>
</svg>
