<svg width="49" height="48" viewBox="0 0 49 48" fill="none" xmlns="http://www.w3.org/2000/svg">
<g id="fi_1390741" clip-path="url(#clip0_1006_4166)">
<path id="Vector" d="M24.5 2.06201C11.8148 2.06201 1.53125 12.3456 1.53125 25.0311C1.53125 29.8014 2.98584 34.2318 5.47498 37.9034L21.7838 47.8391C22.6748 47.9442 23.5808 47.9999 24.5 47.9999C37.1855 47.9999 47.4691 37.7163 47.4691 25.0311C47.4691 12.3456 37.1855 2.06201 24.5 2.06201Z" fill="#15D4F0"/>
<path id="Vector_2" d="M24.4476 47.9993H24.5538C27.2546 47.9934 29.8452 47.5203 32.2512 46.6582C33.3275 45.6943 34.0057 44.2947 34.0054 42.7357L34.0035 5.26282C34.0035 2.3562 31.647 0 28.7404 0L10.632 0.000732422C7.72498 0.00109864 5.36877 2.3573 5.36914 5.26428L5.37061 37.7461C9.47766 43.9131 16.4866 47.9813 24.4476 47.9993Z" fill="#6244BD"/>
<path id="Vector_3" d="M10.632 0.000732422C7.72498 0.00109864 5.36877 2.3573 5.36914 5.26428L5.37061 37.7457C6.88599 40.0214 8.79651 42.0103 11.004 43.6165C10.9557 43.3304 10.9293 43.0367 10.9293 42.7372L10.9279 5.26428C10.9275 2.3573 13.2837 0.00109864 16.1903 0.000732422V0.000366211C16.187 0.000366211 16.194 0 16.1903 0L10.632 0.000732422Z" fill="#4E2AA5"/>
<path id="Vector_4" d="M13.5914 45.249L28.7419 45.2483C30.1295 45.2479 31.2542 44.1233 31.2542 42.7361L31.2523 5.26282C31.252 3.87561 30.1273 2.75098 28.7401 2.75098H25.382C25.0377 2.75098 24.7253 2.94873 24.5737 3.25818C24.2427 3.93457 23.548 4.40039 22.7438 4.40039L16.6277 4.40076C15.8239 4.40076 15.1292 3.93494 14.7977 3.25854C14.6465 2.9491 14.3337 2.75171 13.9895 2.75171H10.6313C9.24377 2.75171 8.11914 3.87671 8.11914 5.26392L8.12097 41.1317C9.72278 42.7614 11.5652 44.1533 13.5914 45.249Z" fill="#E6FCFF"/>
<path id="Vector_5" d="M10.6313 2.75171C9.24377 2.75171 8.11914 3.87671 8.11914 5.26392L8.12097 41.1317C9.0105 42.0366 9.974 42.8676 11.0023 43.6157C10.9543 43.3301 10.9287 43.0367 10.9287 42.7372L10.9269 5.26428C10.9269 4.35425 11.158 3.49841 11.5641 2.75171H10.6313Z" fill="#CCEBFF"/>
<path id="Vector_6" d="M27.6069 16.5317H11.7643C11.3018 16.5317 10.9268 16.9067 10.9268 17.3693V27.4976C10.9268 27.9601 11.3018 28.3351 11.7643 28.3351H27.6069C28.0695 28.3351 28.4445 27.9601 28.4445 27.4976V17.3689C28.4445 16.9067 28.0695 16.5317 27.6069 16.5317Z" fill="#5F83FA"/>
<path id="Vector_7" d="M15.741 27.4976V17.3689C15.741 16.9067 16.1156 16.5317 16.5785 16.5317H11.7643C11.3018 16.5317 10.9268 16.9067 10.9268 17.3689V27.4976C10.9268 27.9601 11.3018 28.3347 11.7643 28.3347H16.5785C16.1156 28.3347 15.741 27.9601 15.741 27.4976Z" fill="#4070EA"/>
<path id="Vector_8" d="M21.4987 40.7058H17.8735C17.114 40.7058 16.498 40.0898 16.498 39.3303C16.498 38.5704 17.114 37.9548 17.8735 37.9548H21.4987C22.2585 37.9548 22.8741 38.5704 22.8741 39.3303C22.8741 40.0898 22.2585 40.7058 21.4987 40.7058Z" fill="#A5C013"/>
<path id="Vector_9" d="M19.4277 39.3303C19.4277 38.5704 20.0437 37.9548 20.8032 37.9548H17.8735C17.114 37.9548 16.498 38.5704 16.498 39.3303C16.498 40.0898 17.114 40.7058 17.8735 40.7058H20.8032C20.0433 40.7058 19.4277 40.0898 19.4277 39.3303Z" fill="#8DAE16"/>
<path id="Vector_10" d="M10.9268 19.1431H28.4445V22.4335H10.9268V19.1431Z" fill="#6244BD"/>
<path id="Vector_11" d="M10.9268 19.1431H15.741V22.4335H10.9268V19.1431Z" fill="#4E2AA5"/>
<path id="Vector_12" d="M27.2933 10.2415H15.0923C14.3328 10.2415 13.7168 9.62585 13.7168 8.86597C13.7168 8.10645 14.3324 7.49048 15.0923 7.49048H27.2933C28.0532 7.49048 28.6688 8.10645 28.6688 8.86597C28.6688 9.62585 28.0529 10.2415 27.2933 10.2415Z" fill="#CCEBFF"/>
<path id="Vector_13" d="M19.5765 8.86597C19.5765 8.10645 20.1921 7.49048 20.952 7.49048H15.0923C14.3328 7.49048 13.7168 8.10645 13.7168 8.86597C13.7168 9.62585 14.3324 10.2415 15.0923 10.2415H20.952C20.1921 10.2415 19.5765 9.62585 19.5765 8.86597Z" fill="#B8DFF4"/>
<path id="Vector_14" d="M15.0925 10.2415H12.0786C11.3191 10.2415 10.7031 9.62585 10.7031 8.86597C10.7031 8.10645 11.3191 7.49048 12.0786 7.49048H15.0925C15.8521 7.49048 16.468 8.10645 16.468 8.86597C16.468 9.62585 15.8521 10.2415 15.0925 10.2415Z" fill="#FE4675"/>
<path id="Vector_15" d="M13.6965 8.86597C13.6965 8.10645 14.3121 7.49048 15.072 7.49048H12.0786C11.3191 7.49048 10.7031 8.10645 10.7031 8.86597C10.7031 9.62585 11.3191 10.2415 12.0786 10.2415H15.072C14.3121 10.2415 13.6965 9.62585 13.6965 8.86597Z" fill="#EC3969"/>
<path id="Vector_16" d="M27.0527 16.5317V14.1122C27.0527 13.7233 26.7374 13.408 26.3485 13.408H13.0239C12.635 13.408 12.3193 13.7233 12.3193 14.1122V16.5317H27.0527Z" fill="#4070EA"/>
<path id="Vector_17" d="M17.8381 13.408H13.0239C12.635 13.408 12.3193 13.7233 12.3193 14.1122V16.5317H17.1335V14.1122C17.1335 13.7233 17.4489 13.408 17.8381 13.408Z" fill="#205DD9"/>
<g id="Group">
<path id="Vector_18" d="M16.2249 32.8265H15.1379C14.7161 32.8265 14.374 32.4845 14.374 32.0623C14.374 31.6404 14.7161 31.2983 15.1379 31.2983H16.2249C16.6467 31.2983 16.9891 31.6404 16.9891 32.0623C16.9891 32.4845 16.6467 32.8265 16.2249 32.8265Z" fill="#CCEBFF"/>
<path id="Vector_19" d="M20.2288 32.8265H19.1422C18.72 32.8265 18.3779 32.4845 18.3779 32.0623C18.3779 31.6404 18.72 31.2983 19.1422 31.2983H20.2288C20.651 31.2983 20.993 31.6404 20.993 32.0623C20.993 32.4845 20.651 32.8265 20.2288 32.8265Z" fill="#CCEBFF"/>
<path id="Vector_20" d="M24.234 32.8265H23.1471C22.7249 32.8265 22.3828 32.4845 22.3828 32.0623C22.3828 31.6404 22.7249 31.2983 23.1471 31.2983H24.234C24.6559 31.2983 24.9979 31.6404 24.9979 32.0623C24.9979 32.4845 24.6559 32.8265 24.234 32.8265Z" fill="#CCEBFF"/>
</g>
<path id="Vector_21" d="M42.3389 33.5567C39.6806 28.9523 33.793 27.3747 29.1887 30.033C24.5847 32.6917 23.007 38.5789 25.6654 43.1833C28.3237 47.7877 34.2113 49.3649 38.8156 46.7066C43.4196 44.0483 44.9973 38.1607 42.3389 33.5567Z" fill="#A5C013"/>
<path id="Vector_22" d="M35.1674 43.5911C34.1826 41.8853 34.3614 39.8282 35.456 38.3356L34.9781 37.5072C33.1382 37.709 31.1068 36.558 30.1221 34.8522C29.0865 33.0585 29.3369 30.8751 30.5872 29.3696C30.1118 29.5505 29.6446 29.771 29.1897 30.0336C24.5854 32.6919 23.0081 38.5795 25.6664 43.1838C28.3247 47.7882 34.2123 49.3658 38.8167 46.7075C39.2078 46.4819 39.5762 46.2322 39.923 45.9626C38.0641 46.1904 36.1627 45.3152 35.1674 43.5911Z" fill="#8DAE16"/>
<path id="Vector_23" d="M33.0031 42.8028C32.6384 42.8028 32.2883 42.6578 32.0305 42.4L29.1048 39.474C28.5679 38.9371 28.5679 38.0659 29.1048 37.529C29.642 36.9918 30.5132 36.9918 31.0501 37.529L33.0031 39.482L37.2402 35.245C37.7774 34.7077 38.6483 34.7077 39.1855 35.245C39.7227 35.7822 39.7227 36.653 39.1855 37.1903L33.9758 42.4C33.718 42.6578 33.3679 42.8028 33.0031 42.8028Z" fill="#E6FCFF"/>
</g>
<defs>
<clipPath id="clip0_1006_4166">
<rect width="48" height="48" fill="white" transform="translate(0.5)"/>
</clipPath>
</defs>
</svg>
