<svg width="20" height="20" viewBox="0 0 20 20" fill="none" xmlns="http://www.w3.org/2000/svg">
<g clip-path="url(#clip0_2213_17117)">
<path d="M13.3281 17.5V15.8333C13.3281 14.9493 12.9769 14.1014 12.3518 13.4763C11.7267 12.8512 10.8788 12.5 9.99479 12.5H4.16146C3.2774 12.5 2.42956 12.8512 1.80444 13.4763C1.17931 14.1014 0.828125 14.9493 0.828125 15.8333V17.5" stroke="#844FCF" stroke-width="2" stroke-linecap="round" stroke-linejoin="round"/>
<path d="M7.08333 9.16667C8.92428 9.16667 10.4167 7.67428 10.4167 5.83333C10.4167 3.99238 8.92428 2.5 7.08333 2.5C5.24238 2.5 3.75 3.99238 3.75 5.83333C3.75 7.67428 5.24238 9.16667 7.08333 9.16667Z" stroke="#844FCF" stroke-width="2" stroke-linecap="round" stroke-linejoin="round"/>
<path d="M14.1719 9.16667L15.8385 10.8333L19.1719 7.5" stroke="#844FCF" stroke-width="2" stroke-linecap="round" stroke-linejoin="round"/>
</g>
<defs>
<clipPath id="clip0_2213_17117">
<rect width="20" height="20" fill="white"/>
</clipPath>
</defs>
</svg>
