<svg width="30" height="30" viewBox="0 0 30 30" fill="none" xmlns="http://www.w3.org/2000/svg">
<rect width="30" height="30" fill="#333333"/>
<rect width="1440" height="750" transform="translate(-829 -157)" fill="#F4F8FB"/>
<circle opacity="0.1" cx="15" cy="15" r="14.5" stroke="black"/>
<path d="M11.812 12.314C11.868 11.446 12.1993 10.7693 12.806 10.284C13.422 9.79867 14.206 9.556 15.158 9.556C15.8113 9.556 16.376 9.67267 16.852 9.906C17.328 10.1393 17.6873 10.4567 17.93 10.858C18.1727 11.2593 18.294 11.712 18.294 12.216C18.294 12.7947 18.14 13.2893 17.832 13.7C17.524 14.1107 17.1553 14.386 16.726 14.526V14.582C17.2767 14.75 17.706 15.058 18.014 15.506C18.322 15.9447 18.476 16.5093 18.476 17.2C18.476 17.7507 18.35 18.2407 18.098 18.67C17.846 19.0993 17.4727 19.44 16.978 19.692C16.4833 19.9347 15.8907 20.056 15.2 20.056C14.192 20.056 13.3613 19.7993 12.708 19.286C12.064 18.7633 11.7187 18.0167 11.672 17.046H13.212C13.2493 17.5407 13.4407 17.9467 13.786 18.264C14.1313 18.572 14.598 18.726 15.186 18.726C15.7553 18.726 16.194 18.572 16.502 18.264C16.81 17.9467 16.964 17.5407 16.964 17.046C16.964 16.3927 16.754 15.9307 16.334 15.66C15.9233 15.38 15.2887 15.24 14.43 15.24H14.066V13.924H14.444C15.2 13.9147 15.774 13.7887 16.166 13.546C16.5673 13.3033 16.768 12.9207 16.768 12.398C16.768 11.95 16.6233 11.5953 16.334 11.334C16.0447 11.0633 15.634 10.928 15.102 10.928C14.5793 10.928 14.1733 11.0633 13.884 11.334C13.5947 11.5953 13.422 11.922 13.366 12.314H11.812Z" fill="black"/>
</svg>
