<svg width="30" height="30" viewBox="0 0 30 30" fill="none" xmlns="http://www.w3.org/2000/svg">
<rect width="30" height="30" fill="#333333"/>
<rect width="1440" height="750" transform="translate(-612 -154)" fill="#F4F8FB"/>
<circle opacity="0.1" cx="15" cy="15" r="14.5" stroke="black"/>
<path d="M12.722 17.83C13.618 17.0553 14.3227 16.4207 14.836 15.926C15.3587 15.422 15.7927 14.8993 16.138 14.358C16.4833 13.8167 16.656 13.2753 16.656 12.734C16.656 12.174 16.5207 11.7353 16.25 11.418C15.9887 11.1007 15.5733 10.942 15.004 10.942C14.4533 10.942 14.024 11.1193 13.716 11.474C13.4173 11.8193 13.2587 12.286 13.24 12.874H11.7C11.728 11.81 12.0453 10.998 12.652 10.438C13.268 9.86867 14.0473 9.584 14.99 9.584C16.0073 9.584 16.8007 9.864 17.37 10.424C17.9487 10.984 18.238 11.7307 18.238 12.664C18.238 13.336 18.0653 13.9847 17.72 14.61C17.384 15.226 16.978 15.7813 16.502 16.276C16.0353 16.7613 15.438 17.326 14.71 17.97L14.08 18.53H18.518V19.86H11.714V18.698L12.722 17.83Z" fill="black"/>
</svg>
