<svg width="15" height="15" viewBox="0 0 15 15" fill="none" xmlns="http://www.w3.org/2000/svg">
<g id="radio-button-fill">
<path id="Vector" opacity="0.4" d="M7.16651 14.333C5.7491 14.333 4.36354 13.9127 3.18501 13.1252C2.00648 12.3378 1.08794 11.2185 0.545521 9.90901C0.00310513 8.5995 -0.138816 7.15856 0.137706 5.76839C0.414227 4.37822 1.09677 3.10128 2.09902 2.09902C3.10128 1.09677 4.37822 0.414227 5.76839 0.137706C7.15856 -0.138816 8.5995 0.00310513 9.90901 0.545521C11.2185 1.08794 12.3378 2.00648 13.1252 3.18501C13.9127 4.36354 14.333 5.7491 14.333 7.16651C14.3309 9.06653 13.5752 10.8881 12.2316 12.2316C10.8881 13.5752 9.06653 14.3309 7.16651 14.333ZM7.16651 0.99998C5.94688 0.99998 4.75465 1.36164 3.74057 2.03923C2.72649 2.71681 1.93611 3.67989 1.46938 4.80668C1.00265 5.93346 0.880532 7.17335 1.11847 8.36953C1.35641 9.56572 1.94371 10.6645 2.80611 11.5269C3.66852 12.3893 4.76729 12.9766 5.96348 13.2145C7.15966 13.4525 8.39955 13.3304 9.52633 12.8636C10.6531 12.3969 11.6162 11.6065 12.2938 10.5924C12.9714 9.57836 13.333 8.38613 13.333 7.16651C13.3313 5.53158 12.681 3.96413 11.5249 2.80806C10.3689 1.652 8.80143 1.00174 7.16651 0.99998Z" fill="#49D49D"/>
<path id="Vector_2" d="M7.1669 11.1663C9.37599 11.1663 11.1668 9.3755 11.1668 7.16641C11.1668 4.95732 9.37599 3.1665 7.1669 3.1665C4.95781 3.1665 3.16699 4.95732 3.16699 7.16641C3.16699 9.3755 4.95781 11.1663 7.1669 11.1663Z" fill="#49D49D"/>
</g>
</svg>
