<svg width="115" height="30" viewBox="0 0 115 30" fill="none" xmlns="http://www.w3.org/2000/svg">
<path d="M0 0H118V30H14C6.26801 30 0 23.732 0 16V0Z" fill="#D0F6FF"/>
<path d="M17.328 19L15.336 15.58H14.016V19H12.924V10.636H15.624C16.256 10.636 16.788 10.744 17.22 10.96C17.66 11.176 17.988 11.468 18.204 11.836C18.42 12.204 18.528 12.624 18.528 13.096C18.528 13.672 18.36 14.18 18.024 14.62C17.696 15.06 17.2 15.352 16.536 15.496L18.636 19H17.328ZM14.016 14.704H15.624C16.216 14.704 16.66 14.56 16.956 14.272C17.252 13.976 17.4 13.584 17.4 13.096C17.4 12.6 17.252 12.216 16.956 11.944C16.668 11.672 16.224 11.536 15.624 11.536H14.016V14.704ZM26.2248 15.46C26.2248 15.668 26.2128 15.888 26.1888 16.12H20.9328C20.9728 16.768 21.1928 17.276 21.5928 17.644C22.0008 18.004 22.4928 18.184 23.0688 18.184C23.5408 18.184 23.9328 18.076 24.2448 17.86C24.5648 17.636 24.7888 17.34 24.9168 16.972H26.0928C25.9168 17.604 25.5648 18.12 25.0368 18.52C24.5088 18.912 23.8528 19.108 23.0688 19.108C22.4448 19.108 21.8848 18.968 21.3888 18.688C20.9008 18.408 20.5168 18.012 20.2368 17.5C19.9568 16.98 19.8168 16.38 19.8168 15.7C19.8168 15.02 19.9528 14.424 20.2248 13.912C20.4968 13.4 20.8768 13.008 21.3648 12.736C21.8608 12.456 22.4288 12.316 23.0688 12.316C23.6928 12.316 24.2448 12.452 24.7248 12.724C25.2048 12.996 25.5728 13.372 25.8288 13.852C26.0928 14.324 26.2248 14.86 26.2248 15.46ZM25.0968 15.232C25.0968 14.816 25.0048 14.46 24.8208 14.164C24.6368 13.86 24.3848 13.632 24.0648 13.48C23.7528 13.32 23.4048 13.24 23.0208 13.24C22.4688 13.24 21.9968 13.416 21.6048 13.768C21.2208 14.12 21.0008 14.608 20.9448 15.232H25.0968ZM27.2582 15.7C27.2582 15.02 27.3942 14.428 27.6662 13.924C27.9382 13.412 28.3142 13.016 28.7942 12.736C29.2822 12.456 29.8382 12.316 30.4622 12.316C31.2702 12.316 31.9342 12.512 32.4542 12.904C32.9822 13.296 33.3302 13.84 33.4982 14.536H32.3222C32.2102 14.136 31.9902 13.82 31.6622 13.588C31.3422 13.356 30.9422 13.24 30.4622 13.24C29.8382 13.24 29.3342 13.456 28.9502 13.888C28.5662 14.312 28.3742 14.916 28.3742 15.7C28.3742 16.492 28.5662 17.104 28.9502 17.536C29.3342 17.968 29.8382 18.184 30.4622 18.184C30.9422 18.184 31.3422 18.072 31.6622 17.848C31.9822 17.624 32.2022 17.304 32.3222 16.888H33.4982C33.3222 17.56 32.9702 18.1 32.4422 18.508C31.9142 18.908 31.2542 19.108 30.4622 19.108C29.8382 19.108 29.2822 18.968 28.7942 18.688C28.3142 18.408 27.9382 18.012 27.6662 17.5C27.3942 16.988 27.2582 16.388 27.2582 15.7ZM37.8233 19.108C37.2073 19.108 36.6473 18.968 36.1433 18.688C35.6473 18.408 35.2553 18.012 34.9673 17.5C34.6873 16.98 34.5473 16.38 34.5473 15.7C34.5473 15.028 34.6913 14.436 34.9793 13.924C35.2753 13.404 35.6753 13.008 36.1793 12.736C36.6833 12.456 37.2473 12.316 37.8713 12.316C38.4953 12.316 39.0593 12.456 39.5633 12.736C40.0673 13.008 40.4633 13.4 40.7513 13.912C41.0473 14.424 41.1953 15.02 41.1953 15.7C41.1953 16.38 41.0433 16.98 40.7393 17.5C40.4433 18.012 40.0393 18.408 39.5273 18.688C39.0153 18.968 38.4473 19.108 37.8233 19.108ZM37.8233 18.148C38.2153 18.148 38.5833 18.056 38.9273 17.872C39.2713 17.688 39.5473 17.412 39.7553 17.044C39.9713 16.676 40.0793 16.228 40.0793 15.7C40.0793 15.172 39.9753 14.724 39.7673 14.356C39.5593 13.988 39.2873 13.716 38.9513 13.54C38.6153 13.356 38.2513 13.264 37.8593 13.264C37.4593 13.264 37.0913 13.356 36.7553 13.54C36.4273 13.716 36.1633 13.988 35.9633 14.356C35.7633 14.724 35.6633 15.172 35.6633 15.7C35.6633 16.236 35.7593 16.688 35.9513 17.056C36.1513 17.424 36.4153 17.7 36.7433 17.884C37.0713 18.06 37.4313 18.148 37.8233 18.148ZM50.539 12.304C51.051 12.304 51.507 12.412 51.907 12.628C52.307 12.836 52.623 13.152 52.855 13.576C53.087 14 53.203 14.516 53.203 15.124V19H52.123V15.28C52.123 14.624 51.959 14.124 51.631 13.78C51.311 13.428 50.875 13.252 50.323 13.252C49.755 13.252 49.303 13.436 48.967 13.804C48.631 14.164 48.463 14.688 48.463 15.376V19H47.383V15.28C47.383 14.624 47.219 14.124 46.891 13.78C46.571 13.428 46.135 13.252 45.583 13.252C45.015 13.252 44.563 13.436 44.227 13.804C43.891 14.164 43.723 14.688 43.723 15.376V19H42.631V12.424H43.723V13.372C43.939 13.028 44.227 12.764 44.587 12.58C44.955 12.396 45.359 12.304 45.799 12.304C46.351 12.304 46.839 12.428 47.263 12.676C47.687 12.924 48.003 13.288 48.211 13.768C48.395 13.304 48.699 12.944 49.123 12.688C49.547 12.432 50.019 12.304 50.539 12.304ZM62.9023 12.304C63.4143 12.304 63.8703 12.412 64.2703 12.628C64.6703 12.836 64.9863 13.152 65.2183 13.576C65.4503 14 65.5663 14.516 65.5663 15.124V19H64.4863V15.28C64.4863 14.624 64.3223 14.124 63.9943 13.78C63.6743 13.428 63.2383 13.252 62.6863 13.252C62.1183 13.252 61.6663 13.436 61.3303 13.804C60.9943 14.164 60.8263 14.688 60.8263 15.376V19H59.7463V15.28C59.7463 14.624 59.5823 14.124 59.2543 13.78C58.9343 13.428 58.4983 13.252 57.9463 13.252C57.3783 13.252 56.9263 13.436 56.5903 13.804C56.2543 14.164 56.0863 14.688 56.0863 15.376V19H54.9943V12.424H56.0863V13.372C56.3023 13.028 56.5903 12.764 56.9503 12.58C57.3183 12.396 57.7223 12.304 58.1623 12.304C58.7143 12.304 59.2023 12.428 59.6263 12.676C60.0503 12.924 60.3663 13.288 60.5743 13.768C60.7583 13.304 61.0623 12.944 61.4863 12.688C61.9103 12.432 62.3823 12.304 62.9023 12.304ZM73.3576 15.46C73.3576 15.668 73.3456 15.888 73.3216 16.12H68.0656C68.1056 16.768 68.3256 17.276 68.7256 17.644C69.1336 18.004 69.6256 18.184 70.2016 18.184C70.6736 18.184 71.0656 18.076 71.3776 17.86C71.6976 17.636 71.9216 17.34 72.0496 16.972H73.2256C73.0496 17.604 72.6976 18.12 72.1696 18.52C71.6416 18.912 70.9856 19.108 70.2016 19.108C69.5776 19.108 69.0176 18.968 68.5216 18.688C68.0336 18.408 67.6496 18.012 67.3696 17.5C67.0896 16.98 66.9496 16.38 66.9496 15.7C66.9496 15.02 67.0856 14.424 67.3576 13.912C67.6296 13.4 68.0096 13.008 68.4976 12.736C68.9936 12.456 69.5616 12.316 70.2016 12.316C70.8256 12.316 71.3776 12.452 71.8576 12.724C72.3376 12.996 72.7056 13.372 72.9616 13.852C73.2256 14.324 73.3576 14.86 73.3576 15.46ZM72.2296 15.232C72.2296 14.816 72.1376 14.46 71.9536 14.164C71.7696 13.86 71.5176 13.632 71.1976 13.48C70.8856 13.32 70.5376 13.24 70.1536 13.24C69.6016 13.24 69.1296 13.416 68.7376 13.768C68.3536 14.12 68.1336 14.608 68.0776 15.232H72.2296ZM78.003 12.304C78.803 12.304 79.451 12.548 79.947 13.036C80.443 13.516 80.691 14.212 80.691 15.124V19H79.611V15.28C79.611 14.624 79.447 14.124 79.119 13.78C78.791 13.428 78.343 13.252 77.775 13.252C77.199 13.252 76.739 13.432 76.395 13.792C76.059 14.152 75.891 14.676 75.891 15.364V19H74.799V12.424H75.891V13.36C76.107 13.024 76.399 12.764 76.767 12.58C77.143 12.396 77.555 12.304 78.003 12.304ZM82.0668 15.688C82.0668 15.016 82.2028 14.428 82.4748 13.924C82.7468 13.412 83.1188 13.016 83.5908 12.736C84.0708 12.456 84.6068 12.316 85.1988 12.316C85.7108 12.316 86.1868 12.436 86.6268 12.676C87.0668 12.908 87.4028 13.216 87.6348 13.6V10.12H88.7388V19H87.6348V17.764C87.4188 18.156 87.0988 18.48 86.6748 18.736C86.2508 18.984 85.7548 19.108 85.1868 19.108C84.6028 19.108 84.0708 18.964 83.5908 18.676C83.1188 18.388 82.7468 17.984 82.4748 17.464C82.2028 16.944 82.0668 16.352 82.0668 15.688ZM87.6348 15.7C87.6348 15.204 87.5348 14.772 87.3348 14.404C87.1348 14.036 86.8628 13.756 86.5188 13.564C86.1828 13.364 85.8108 13.264 85.4028 13.264C84.9948 13.264 84.6228 13.36 84.2868 13.552C83.9508 13.744 83.6828 14.024 83.4828 14.392C83.2828 14.76 83.1828 15.192 83.1828 15.688C83.1828 16.192 83.2828 16.632 83.4828 17.008C83.6828 17.376 83.9508 17.66 84.2868 17.86C84.6228 18.052 84.9948 18.148 85.4028 18.148C85.8108 18.148 86.1828 18.052 86.5188 17.86C86.8628 17.66 87.1348 17.376 87.3348 17.008C87.5348 16.632 87.6348 16.196 87.6348 15.7ZM96.5842 15.46C96.5842 15.668 96.5722 15.888 96.5482 16.12H91.2922C91.3322 16.768 91.5522 17.276 91.9522 17.644C92.3602 18.004 92.8522 18.184 93.4282 18.184C93.9002 18.184 94.2922 18.076 94.6042 17.86C94.9242 17.636 95.1482 17.34 95.2762 16.972H96.4522C96.2762 17.604 95.9242 18.12 95.3962 18.52C94.8682 18.912 94.2122 19.108 93.4282 19.108C92.8042 19.108 92.2442 18.968 91.7482 18.688C91.2602 18.408 90.8762 18.012 90.5962 17.5C90.3162 16.98 90.1762 16.38 90.1762 15.7C90.1762 15.02 90.3122 14.424 90.5842 13.912C90.8562 13.4 91.2362 13.008 91.7242 12.736C92.2202 12.456 92.7882 12.316 93.4282 12.316C94.0522 12.316 94.6042 12.452 95.0842 12.724C95.5642 12.996 95.9322 13.372 96.1882 13.852C96.4522 14.324 96.5842 14.86 96.5842 15.46ZM95.4562 15.232C95.4562 14.816 95.3642 14.46 95.1802 14.164C94.9962 13.86 94.7442 13.632 94.4242 13.48C94.1122 13.32 93.7642 13.24 93.3802 13.24C92.8282 13.24 92.3562 13.416 91.9642 13.768C91.5802 14.12 91.3602 14.608 91.3042 15.232H95.4562ZM97.6176 15.688C97.6176 15.016 97.7536 14.428 98.0256 13.924C98.2976 13.412 98.6696 13.016 99.1416 12.736C99.6216 12.456 100.158 12.316 100.75 12.316C101.262 12.316 101.738 12.436 102.178 12.676C102.618 12.908 102.954 13.216 103.186 13.6V10.12H104.29V19H103.186V17.764C102.97 18.156 102.65 18.48 102.226 18.736C101.802 18.984 101.306 19.108 100.738 19.108C100.154 19.108 99.6216 18.964 99.1416 18.676C98.6696 18.388 98.2976 17.984 98.0256 17.464C97.7536 16.944 97.6176 16.352 97.6176 15.688ZM103.186 15.7C103.186 15.204 103.086 14.772 102.886 14.404C102.686 14.036 102.414 13.756 102.07 13.564C101.734 13.364 101.362 13.264 100.954 13.264C100.546 13.264 100.174 13.36 99.8376 13.552C99.5016 13.744 99.2336 14.024 99.0336 14.392C98.8336 14.76 98.7336 15.192 98.7336 15.688C98.7336 16.192 98.8336 16.632 99.0336 17.008C99.2336 17.376 99.5016 17.66 99.8376 17.86C100.174 18.052 100.546 18.148 100.954 18.148C101.362 18.148 101.734 18.052 102.07 17.86C102.414 17.66 102.686 17.376 102.886 17.008C103.086 16.632 103.186 16.196 103.186 15.7Z" fill="black"/>
</svg>
