<svg width="25" height="24" viewBox="0 0 25 24" fill="none" xmlns="http://www.w3.org/2000/svg">
<g id="Group">
<path id="Vector" d="M12.5 0C5.88298 0 0.5 5.38298 0.5 12C0.5 18.617 5.88298 24 12.5 24C19.117 24 24.5 18.617 24.5 12C24.5 5.38298 19.117 0 12.5 0ZM16.207 12.707L11.207 17.707C11.012 17.902 10.756 18 10.5 18C10.244 18 9.98797 17.902 9.79297 17.707C9.40198 17.316 9.40198 16.684 9.79297 16.293L14.086 12L9.79302 7.707C9.40203 7.31602 9.40203 6.684 9.79302 6.29302C10.184 5.90203 10.816 5.90203 11.207 6.29302L16.207 11.293C16.598 11.684 16.598 12.316 16.207 12.707Z" fill="black"/>
</g>
</svg>
