<svg width="34" height="34" viewBox="0 0 34 34" fill="none" xmlns="http://www.w3.org/2000/svg">
<path d="M0.75 12.8C0.75 10.5474 0.750583 8.90308 0.856503 7.60669C0.961707 6.31905 1.16708 5.44087 1.5402 4.70857C2.23528 3.34439 3.34439 2.23528 4.70857 1.5402C5.44087 1.16708 6.31905 0.961707 7.60669 0.856503C8.90308 0.750583 10.5474 0.75 12.8 0.75H21.2C23.4526 0.75 25.0969 0.750583 26.3933 0.856503C27.6809 0.961707 28.5591 1.16708 29.2914 1.5402C30.6556 2.23528 31.7647 3.34439 32.4598 4.70857C32.8329 5.44087 33.0383 6.31905 33.1435 7.60669C33.2494 8.90308 33.25 10.5474 33.25 12.8V21.2C33.25 23.4526 33.2494 25.0969 33.1435 26.3933C33.0383 27.6809 32.8329 28.5591 32.4598 29.2914C31.7647 30.6556 30.6556 31.7647 29.2914 32.4598C28.5591 32.8329 27.6809 33.0383 26.3933 33.1435C25.0969 33.2494 23.4526 33.25 21.2 33.25H12.8C10.5474 33.25 8.90308 33.2494 7.60669 33.1435C6.31905 33.0383 5.44087 32.8329 4.70857 32.4598C3.34439 31.7647 2.23528 30.6556 1.5402 29.2914C1.16708 28.5591 0.961707 27.6809 0.856503 26.3933C0.750583 25.0969 0.75 23.4526 0.75 21.2V12.8Z" stroke="#212529" stroke-width="1.5"/>
<path d="M16.3333 21.6667C19.2789 21.6667 21.6667 19.2789 21.6667 16.3333C21.6667 13.3878 19.2789 11 16.3333 11C13.3878 11 11 13.3878 11 16.3333C11 19.2789 13.3878 21.6667 16.3333 21.6667Z" stroke="#212529" stroke-width="1.5" stroke-linecap="round" stroke-linejoin="round"/>
<path d="M23.0016 22.9996L20.1016 20.0996" stroke="#212529" stroke-width="1.5" stroke-linecap="round" stroke-linejoin="round"/>
</svg>
