<svg width="80" height="64" viewBox="0 0 80 64" fill="none" xmlns="http://www.w3.org/2000/svg">
<path d="M7.51894 7.82031L9.54974 13.0888L15.0379 15.0383L9.54974 16.9878L7.51894 22.2562L5.48814 16.9878L0 15.0383L5.48814 13.0888L7.51894 7.82031Z" fill="#49D49D"/>
<path d="M71.2499 55.9395L72.2976 58.7706L75.1288 59.8182L72.2976 60.8658L71.2499 63.6969L70.2023 60.8658L67.3711 59.8182L70.2023 58.7706L71.2499 55.9395Z" fill="#49D49D"/>
<path d="M76.6911 4.8125L77.5847 7.22721L79.9995 8.12073L77.5847 9.01426L76.6911 11.429L75.7976 9.01426L73.3828 8.12073L75.7976 7.22721L76.6911 4.8125Z" fill="#49D49D"/>
<path d="M76.5505 31.8793C76.5505 49.2403 62.4762 63.3142 45.1147 63.3142C27.7531 63.3142 13.6788 49.2403 13.6788 31.8793C13.6788 14.5183 27.7531 0.444446 45.1147 0.444446C62.4762 0.444446 76.5505 14.5183 76.5505 31.8793Z" stroke="#49D49D" stroke-width="0.888892"/>
<ellipse cx="45.1154" cy="31.8803" rx="22.8576" ry="22.8569" fill="#49D49D"/>
<path d="M35.2695 29.8619H38.2223V41.5038H35.2695C35.0084 41.5038 34.758 41.4015 34.5735 41.2196C34.3889 41.0377 34.2852 40.7909 34.2852 40.5336V30.832C34.2852 30.5747 34.3889 30.328 34.5735 30.146C34.758 29.9641 35.0084 29.8619 35.2695 29.8619ZM40.4793 28.6074L46.7788 22.3984C46.8626 22.3157 46.9738 22.2655 47.0921 22.2571C47.2103 22.2487 47.3277 22.2827 47.4226 22.3528L48.2622 22.9737C48.4954 23.1463 48.6715 23.383 48.7684 23.6541C48.8652 23.9251 48.8785 24.2184 48.8065 24.4969L47.6716 28.8917H53.9711C54.4932 28.8917 54.9939 29.0961 55.3631 29.46C55.7323 29.8239 55.9397 30.3174 55.9397 30.832V32.8732C55.94 33.1268 55.8898 33.3779 55.7921 33.6125L52.7457 40.9032C52.6713 41.081 52.5451 41.233 52.383 41.3399C52.2209 41.4468 52.0302 41.5038 51.8352 41.5038H41.1752C40.9142 41.5038 40.6638 41.4015 40.4792 41.2196C40.2946 41.0377 40.1909 40.7909 40.1909 40.5336V29.2933C40.191 29.0361 40.2947 28.7893 40.4793 28.6074Z" fill="white"/>
</svg>
