<svg width="34" height="34" viewBox="0 0 34 34" fill="none" xmlns="http://www.w3.org/2000/svg">
<path d="M0 12.8C0 8.31958 0 6.07937 0.871948 4.36808C1.63893 2.86278 2.86278 1.63893 4.36808 0.871948C6.07937 0 8.31958 0 12.8 0H21.2C25.6804 0 27.9206 0 29.6319 0.871948C31.1372 1.63893 32.3611 2.86278 33.1281 4.36808C34 6.07937 34 8.31958 34 12.8V21.2C34 25.6804 34 27.9206 33.1281 29.6319C32.3611 31.1372 31.1372 32.3611 29.6319 33.1281C27.9206 34 25.6804 34 21.2 34H12.8C8.31958 34 6.07937 34 4.36808 33.1281C2.86278 32.3611 1.63893 31.1372 0.871948 29.6319C0 27.9206 0 25.6804 0 21.2V12.8Z" fill="#49D49D"/>
<path d="M23.6654 24.5V22.8333C23.6654 21.9493 23.3142 21.1014 22.6891 20.4763C22.0639 19.8512 21.2161 19.5 20.332 19.5H13.6654C12.7813 19.5 11.9335 19.8512 11.3083 20.4763C10.6832 21.1014 10.332 21.9493 10.332 22.8333V24.5" stroke="white" stroke-width="1.5" stroke-linecap="round" stroke-linejoin="round"/>
<path d="M17.0013 16.1667C18.8423 16.1667 20.3346 14.6743 20.3346 12.8333C20.3346 10.9924 18.8423 9.5 17.0013 9.5C15.1604 9.5 13.668 10.9924 13.668 12.8333C13.668 14.6743 15.1604 16.1667 17.0013 16.1667Z" stroke="white" stroke-width="1.5" stroke-linecap="round" stroke-linejoin="round"/>
</svg>
